<svg version="1.1" id="Layer_1" xmlns="http://www.w3.org/2000/svg" xmlns:xlink="http://www.w3.org/1999/xlink" x="0px" y="0px"
	 width="100%" viewBox="0 0 200 200" enable-background="new 0 0 200 200" xml:space="preserve">
<path fill="#19545D" opacity="1.000000" stroke="none" 
	d="
M116.000000,201.000000 
	C77.357201,201.000000 39.214397,201.000000 1.035799,201.000000 
	C1.035799,134.398911 1.035799,67.797783 1.035799,1.098330 
	C67.559296,1.098330 134.118790,1.098330 200.839142,1.098330 
	C200.839142,67.666351 200.839142,134.333145 200.839142,201.000000 
	C172.798065,201.000000 144.649033,201.000000 116.000000,201.000000 
M71.438866,104.774330 
	C78.791740,98.539444 84.212440,103.314468 89.953064,108.656029 
	C90.713814,107.128822 91.490051,106.086098 91.773041,104.923325 
	C94.890411,92.114532 87.289772,79.681557 74.603523,75.732559 
	C64.441368,72.569283 54.410809,72.994179 44.783012,76.663185 
	C36.618816,79.774437 29.376253,85.652596 28.345631,94.587151 
	C27.297916,103.669891 27.388617,113.548676 29.876242,122.251205 
	C37.682533,149.560135 54.480656,169.031998 82.343796,178.182495 
	C104.378319,185.418839 125.753716,183.129990 145.891068,173.315918 
	C174.686172,159.282471 189.159622,126.929474 187.541870,97.727737 
	C187.111603,89.960899 185.175873,88.556671 177.411148,89.453506 
	C176.427856,89.567070 175.470215,89.896896 174.498352,90.116104 
	C163.442917,92.609711 154.762756,99.301880 146.139725,106.115089 
	C135.368622,114.625511 125.598289,124.405609 113.144081,130.756851 
	C102.772881,136.045837 92.335007,139.639282 80.648239,136.058655 
	C73.580383,133.893173 68.037605,129.499908 65.794167,122.487343 
	C63.733471,116.046005 65.829674,110.013412 71.438866,104.774330 
M102.640205,29.628922 
	C111.341736,30.471731 120.435219,29.986231 128.668564,32.415691 
	C150.163422,38.758301 166.621918,51.774586 175.492905,73.001793 
	C177.029984,76.679863 178.801971,77.605186 183.017471,74.895279 
	C179.787338,68.648193 177.284393,61.877262 173.201370,56.253506 
	C157.624466,34.798550 136.041382,24.020958 109.719131,23.631754 
	C100.874542,23.500977 91.969444,25.721546 83.155861,27.238424 
	C81.929794,27.449438 80.078224,29.941788 80.249115,31.128515 
	C80.610474,33.638008 82.473595,33.943352 85.169647,33.165447 
	C90.563324,31.609179 96.167740,30.783321 102.640205,29.628922 
M126.039551,48.099476 
	C143.370392,54.245022 155.138885,66.535751 163.281036,82.775856 
	C165.343628,81.788284 166.794128,81.093781 169.006653,80.034416 
	C165.665680,74.748291 162.821899,69.530701 159.308075,64.812073 
	C143.072021,43.009109 115.050674,33.904232 89.124016,41.771446 
	C85.838577,42.768387 84.423317,45.891705 86.767708,47.321606 
	C88.142715,48.160255 90.565445,47.848835 92.336670,47.377506 
	C103.386787,44.437035 114.344398,44.410980 126.039551,48.099476 
M136.644424,73.840546 
	C139.820160,77.778069 142.834991,81.865486 146.274460,85.557320 
	C147.244720,86.598770 149.458557,86.481659 151.102020,86.895927 
	C151.283295,85.518120 152.090286,83.769814 151.533310,82.829124 
	C149.536240,79.456291 147.373123,76.087799 144.743912,73.199028 
	C131.225525,58.346077 114.828583,52.365662 94.965569,57.642464 
	C92.864830,58.200546 90.514519,58.404980 91.421661,61.702679 
	C92.258598,64.745171 94.339333,64.430901 96.514984,63.780579 
	C111.586426,59.275547 124.612656,63.165607 136.644424,73.840546 
M129.284256,89.222923 
	C129.676727,89.757942 130.104706,90.270782 130.455353,90.831947 
	C131.743896,92.894020 132.579407,95.690765 135.996628,93.448997 
	C139.515991,91.140228 136.829071,89.228394 135.684174,87.308464 
	C130.712112,78.970665 123.097786,74.302719 113.786537,72.579659 
	C107.679192,71.449486 101.419029,71.122108 95.504982,75.452484 
	C97.086006,76.852699 98.992355,78.243889 100.592850,77.952881 
	C112.254654,75.832420 121.878571,78.698486 129.284256,89.222923 
M102.079208,93.093376 
	C108.731232,92.410866 114.410950,93.881119 118.689865,99.610970 
	C119.440094,100.615593 122.066498,100.219147 123.826416,100.469765 
	C123.719543,98.856918 124.214027,96.801933 123.406792,95.704033 
	C118.678215,89.272781 112.282227,86.066597 104.149956,86.880791 
	C99.263733,87.369987 98.868279,88.238831 102.079208,93.093376 
z"/>
<path fill="#FBFCFC" opacity="1.000000" stroke="none" 
	d="
M71.139084,105.001022 
	C65.829674,110.013412 63.733471,116.046005 65.794167,122.487343 
	C68.037605,129.499908 73.580383,133.893173 80.648239,136.058655 
	C92.335007,139.639282 102.772881,136.045837 113.144081,130.756851 
	C125.598289,124.405609 135.368622,114.625511 146.139725,106.115089 
	C154.762756,99.301880 163.442917,92.609711 174.498352,90.116104 
	C175.470215,89.896896 176.427856,89.567070 177.411148,89.453506 
	C185.175873,88.556671 187.111603,89.960899 187.541870,97.727737 
	C189.159622,126.929474 174.686172,159.282471 145.891068,173.315918 
	C125.753716,183.129990 104.378319,185.418839 82.343796,178.182495 
	C54.480656,169.031998 37.682533,149.560135 29.876242,122.251205 
	C27.388617,113.548676 27.297916,103.669891 28.345631,94.587151 
	C29.376253,85.652596 36.618816,79.774437 44.783012,76.663185 
	C54.410809,72.994179 64.441368,72.569283 74.603523,75.732559 
	C87.289772,79.681557 94.890411,92.114532 91.773041,104.923325 
	C91.490051,106.086098 90.713814,107.128822 89.953064,108.656029 
	C84.212440,103.314468 78.791740,98.539444 71.139084,105.001022 
z"/>
<path fill="#E2EAEB" opacity="1.000000" stroke="none" 
	d="
M102.162674,29.642403 
	C96.167740,30.783321 90.563324,31.609179 85.169647,33.165447 
	C82.473595,33.943352 80.610474,33.638008 80.249115,31.128515 
	C80.078224,29.941788 81.929794,27.449438 83.155861,27.238424 
	C91.969444,25.721546 100.874542,23.500977 109.719131,23.631754 
	C136.041382,24.020958 157.624466,34.798550 173.201370,56.253506 
	C177.284393,61.877262 179.787338,68.648193 183.017471,74.895279 
	C178.801971,77.605186 177.029984,76.679863 175.492905,73.001793 
	C166.621918,51.774586 150.163422,38.758301 128.668564,32.415691 
	C120.435219,29.986231 111.341736,30.471731 102.162674,29.642403 
z"/>
<path fill="#E1E9EA" opacity="1.000000" stroke="none" 
	d="
M125.656204,47.991306 
	C114.344398,44.410980 103.386787,44.437035 92.336670,47.377506 
	C90.565445,47.848835 88.142715,48.160255 86.767708,47.321606 
	C84.423317,45.891705 85.838577,42.768387 89.124016,41.771446 
	C115.050674,33.904232 143.072021,43.009109 159.308075,64.812073 
	C162.821899,69.530701 165.665680,74.748291 169.006653,80.034416 
	C166.794128,81.093781 165.343628,81.788284 163.281036,82.775856 
	C155.138885,66.535751 143.370392,54.245022 125.656204,47.991306 
z"/>
<path fill="#E1E9EA" opacity="1.000000" stroke="none" 
	d="
M136.387299,73.591858 
	C124.612656,63.165607 111.586426,59.275547 96.514984,63.780579 
	C94.339333,64.430901 92.258598,64.745171 91.421661,61.702679 
	C90.514519,58.404980 92.864830,58.200546 94.965569,57.642464 
	C114.828583,52.365662 131.225525,58.346077 144.743912,73.199028 
	C147.373123,76.087799 149.536240,79.456291 151.533310,82.829124 
	C152.090286,83.769814 151.283295,85.518120 151.102020,86.895935 
	C149.458557,86.481659 147.244720,86.598770 146.274460,85.557320 
	C142.834991,81.865486 139.820160,77.778069 136.387299,73.591858 
z"/>
<path fill="#DEE6E8" opacity="1.000000" stroke="none" 
	d="
M129.118210,88.908936 
	C121.878571,78.698486 112.254654,75.832420 100.592850,77.952881 
	C98.992355,78.243889 97.086006,76.852699 95.504982,75.452484 
	C101.419029,71.122108 107.679192,71.449486 113.786537,72.579659 
	C123.097786,74.302719 130.712112,78.970665 135.684174,87.308464 
	C136.829071,89.228394 139.515991,91.140228 135.996628,93.448997 
	C132.579407,95.690765 131.743896,92.894020 130.455353,90.831947 
	C130.104706,90.270782 129.676727,89.757942 129.118210,88.908936 
z"/>
<path fill="#E1E9EA" opacity="1.000000" stroke="none" 
	d="
M101.747017,92.917404 
	C98.868279,88.238831 99.263733,87.369987 104.149956,86.880791 
	C112.282227,86.066597 118.678215,89.272781 123.406792,95.704033 
	C124.214027,96.801933 123.719543,98.856918 123.826416,100.469757 
	C122.066498,100.219147 119.440094,100.615593 118.689865,99.610970 
	C114.410950,93.881119 108.731232,92.410866 101.747017,92.917404 
z"/>
</svg>